<?xml version="1.0" encoding="UTF-8"?>
<svg xmlns="http://www.w3.org/2000/svg" xmlns:xlink="http://www.w3.org/1999/xlink" width="375pt" height="374.999991pt" viewBox="0 0 375 374.999991" version="1.2">
<defs>
<clipPath id="clip1">
  <path d="M 32.769531 254 L 114 254 L 114 336 L 32.769531 336 Z M 32.769531 254 "/>
</clipPath>
<clipPath id="clip2">
  <path d="M 32.769531 254 L 85 254 L 85 336 L 32.769531 336 Z M 32.769531 254 "/>
</clipPath>
<clipPath id="clip3">
  <path d="M 255 82 L 342.519531 82 L 342.519531 238 L 255 238 Z M 255 82 "/>
</clipPath>
</defs>
<g id="surface1">
<path style=" stroke:none;fill-rule:nonzero;fill:rgb(100%,100%,100%);fill-opacity:1;" d="M 187.5 0 C 184.574219 0 181.652344 0.0703125 178.730469 0.214844 C 175.808594 0.359375 172.890625 0.574219 169.980469 0.859375 C 167.070312 1.148438 164.167969 1.503906 161.273438 1.933594 C 158.378906 2.363281 155.5 2.863281 152.628906 3.433594 C 149.761719 4.003906 146.90625 4.644531 144.070312 5.355469 C 141.234375 6.066406 138.414062 6.847656 135.613281 7.695312 C 132.816406 8.546875 130.039062 9.460938 127.285156 10.449219 C 124.53125 11.433594 121.800781 12.484375 119.101562 13.605469 C 116.398438 14.726562 113.722656 15.910156 111.078125 17.160156 C 108.433594 18.410156 105.824219 19.726562 103.242188 21.105469 C 100.664062 22.484375 98.121094 23.925781 95.609375 25.429688 C 93.101562 26.933594 90.628906 28.496094 88.199219 30.121094 C 85.765625 31.746094 83.375 33.433594 81.027344 35.175781 C 78.675781 36.917969 76.371094 38.714844 74.109375 40.570312 C 71.847656 42.425781 69.632812 44.335938 67.464844 46.300781 C 65.300781 48.265625 63.179688 50.28125 61.113281 52.351562 C 59.042969 54.417969 57.027344 56.539062 55.0625 58.703125 C 53.097656 60.871094 51.1875 63.085938 49.332031 65.347656 C 47.476562 67.609375 45.679688 69.914062 43.9375 72.265625 C 42.195312 74.613281 40.507812 77.003906 38.882812 79.4375 C 37.257812 81.867188 35.695312 84.339844 34.191406 86.847656 C 32.6875 89.359375 31.246094 91.902344 29.867188 94.480469 C 28.488281 97.0625 27.171875 99.671875 25.921875 102.316406 C 24.671875 104.960938 23.488281 107.636719 22.367188 110.339844 C 21.246094 113.039062 20.195312 115.769531 19.210938 118.523438 C 18.222656 121.277344 17.308594 124.054688 16.457031 126.851562 C 15.609375 129.652344 14.828125 132.472656 14.117188 135.308594 C 13.40625 138.144531 12.765625 141 12.195312 143.867188 C 11.625 146.738281 11.125 149.617188 10.695312 152.511719 C 10.265625 155.40625 9.910156 158.308594 9.621094 161.21875 C 9.335938 164.128906 9.121094 167.046875 8.976562 169.96875 C 8.832031 172.890625 8.761719 175.8125 8.761719 178.738281 C 8.761719 181.664062 8.832031 184.585938 8.976562 187.507812 C 9.121094 190.429688 9.335938 193.347656 9.621094 196.257812 C 9.910156 199.167969 10.265625 202.070312 10.695312 204.964844 C 11.125 207.859375 11.625 210.738281 12.195312 213.609375 C 12.765625 216.476562 13.40625 219.332031 14.117188 222.167969 C 14.828125 225.003906 15.609375 227.824219 16.457031 230.625 C 17.308594 233.421875 18.222656 236.199219 19.210938 238.953125 C 20.195312 241.707031 21.246094 244.4375 22.367188 247.136719 C 23.488281 249.839844 24.671875 252.515625 25.921875 255.160156 C 27.171875 257.804688 28.488281 260.414062 29.867188 262.996094 C 31.246094 265.574219 32.6875 268.117188 34.191406 270.628906 C 35.695312 273.136719 37.257812 275.609375 38.882812 278.039062 C 40.507812 280.472656 42.195312 282.863281 43.9375 285.210938 C 45.679688 287.5625 47.476562 289.867188 49.332031 292.128906 C 51.1875 294.390625 53.097656 296.605469 55.0625 298.773438 C 57.027344 300.9375 59.042969 303.058594 61.113281 305.125 C 63.179688 307.195312 65.300781 309.210938 67.464844 311.175781 C 69.632812 313.140625 71.847656 315.050781 74.109375 316.90625 C 76.371094 318.761719 78.675781 320.558594 81.027344 322.300781 C 83.375 324.042969 85.765625 325.730469 88.199219 327.355469 C 90.628906 328.980469 93.101562 330.542969 95.609375 332.046875 C 98.121094 333.550781 100.664062 334.992188 103.242188 336.371094 C 105.824219 337.75 108.433594 339.066406 111.078125 340.316406 C 113.722656 341.566406 116.398438 342.75 119.101562 343.871094 C 121.800781 344.992188 124.53125 346.042969 127.285156 347.027344 C 130.039062 348.015625 132.816406 348.929688 135.613281 349.78125 C 138.414062 350.628906 141.234375 351.410156 144.070312 352.121094 C 146.90625 352.832031 149.761719 353.472656 152.628906 354.042969 C 155.5 354.613281 158.378906 355.113281 161.273438 355.542969 C 164.167969 355.972656 167.070312 356.328125 169.980469 356.617188 C 172.890625 356.902344 175.808594 357.117188 178.730469 357.261719 C 181.652344 357.40625 184.574219 357.476562 187.5 357.476562 C 190.425781 357.476562 193.347656 357.40625 196.269531 357.261719 C 199.191406 357.117188 202.109375 356.902344 205.019531 356.617188 C 207.929688 356.328125 210.832031 355.972656 213.726562 355.542969 C 216.621094 355.113281 219.5 354.613281 222.371094 354.042969 C 225.238281 353.472656 228.09375 352.832031 230.929688 352.121094 C 233.765625 351.410156 236.585938 350.628906 239.386719 349.78125 C 242.183594 348.929688 244.960938 348.015625 247.714844 347.027344 C 250.46875 346.042969 253.199219 344.992188 255.898438 343.871094 C 258.601562 342.75 261.277344 341.566406 263.921875 340.316406 C 266.566406 339.066406 269.175781 337.75 271.757812 336.371094 C 274.335938 334.992188 276.878906 333.550781 279.390625 332.046875 C 281.898438 330.542969 284.371094 328.980469 286.800781 327.355469 C 289.234375 325.730469 291.625 324.042969 293.972656 322.300781 C 296.324219 320.558594 298.628906 318.761719 300.890625 316.90625 C 303.152344 315.050781 305.367188 313.140625 307.535156 311.175781 C 309.699219 309.210938 311.820312 307.195312 313.886719 305.125 C 315.957031 303.058594 317.972656 300.9375 319.9375 298.773438 C 321.902344 296.605469 323.8125 294.390625 325.667969 292.128906 C 327.523438 289.867188 329.320312 287.5625 331.0625 285.210938 C 332.804688 282.863281 334.492188 280.472656 336.117188 278.039062 C 337.742188 275.609375 339.304688 273.136719 340.808594 270.628906 C 342.3125 268.117188 343.753906 265.574219 345.132812 262.996094 C 346.511719 260.414062 347.828125 257.804688 349.078125 255.160156 C 350.328125 252.515625 351.511719 249.839844 352.632812 247.136719 C 353.753906 244.4375 354.804688 241.707031 355.789062 238.953125 C 356.777344 236.199219 357.691406 233.421875 358.542969 230.625 C 359.390625 227.824219 360.171875 225.003906 360.882812 222.167969 C 361.59375 219.332031 362.234375 216.476562 362.804688 213.609375 C 363.375 210.738281 363.875 207.859375 364.304688 204.964844 C 364.734375 202.070312 365.089844 199.167969 365.378906 196.257812 C 365.664062 193.347656 365.878906 190.429688 366.023438 187.507812 C 366.167969 184.585938 366.238281 181.664062 366.238281 178.738281 C 366.238281 175.8125 366.167969 172.890625 366.023438 169.96875 C 365.878906 167.046875 365.664062 164.128906 365.378906 161.21875 C 365.089844 158.308594 364.734375 155.40625 364.304688 152.511719 C 363.875 149.617188 363.375 146.738281 362.804688 143.867188 C 362.234375 141 361.59375 138.144531 360.882812 135.308594 C 360.171875 132.472656 359.390625 129.652344 358.542969 126.851562 C 357.691406 124.054688 356.773438 121.277344 355.789062 118.523438 C 354.804688 115.769531 353.753906 113.039062 352.632812 110.339844 C 351.511719 107.636719 350.328125 104.960938 349.078125 102.316406 C 347.828125 99.671875 346.511719 97.0625 345.132812 94.480469 C 343.753906 91.902344 342.3125 89.359375 340.808594 86.847656 C 339.304688 84.339844 337.742188 81.867188 336.117188 79.4375 C 334.492188 77.003906 332.804688 74.613281 331.0625 72.265625 C 329.320312 69.914062 327.523438 67.609375 325.667969 65.347656 C 323.8125 63.085938 321.902344 60.871094 319.9375 58.703125 C 317.972656 56.539062 315.957031 54.417969 313.886719 52.351562 C 311.820312 50.28125 309.699219 48.265625 307.535156 46.300781 C 305.367188 44.335938 303.152344 42.425781 300.890625 40.570312 C 298.628906 38.714844 296.324219 36.917969 293.972656 35.175781 C 291.625 33.433594 289.234375 31.746094 286.800781 30.121094 C 284.371094 28.496094 281.898438 26.933594 279.390625 25.429688 C 276.878906 23.925781 274.335938 22.484375 271.757812 21.105469 C 269.175781 19.726562 266.566406 18.410156 263.921875 17.160156 C 261.277344 15.910156 258.601562 14.726562 255.898438 13.605469 C 253.199219 12.484375 250.46875 11.433594 247.714844 10.449219 C 244.960938 9.460938 242.183594 8.546875 239.386719 7.695312 C 236.585938 6.847656 233.765625 6.066406 230.929688 5.355469 C 228.09375 4.644531 225.238281 4.003906 222.371094 3.433594 C 219.5 2.863281 216.621094 2.363281 213.726562 1.933594 C 210.832031 1.503906 207.929688 1.148438 205.019531 0.859375 C 202.109375 0.574219 199.191406 0.359375 196.269531 0.214844 C 193.347656 0.0703125 190.425781 0 187.5 0 Z M 187.5 0 "/>
<path style=" stroke:none;fill-rule:nonzero;fill:rgb(92.158508%,69.018555%,26.669312%);fill-opacity:1;" d="M 269.957031 152.660156 L 197.492188 152.660156 C 136.984375 152.660156 87.929688 201.710938 87.929688 262.21875 L 87.929688 296.539062 C 87.929688 330.6875 115.613281 358.371094 149.761719 358.371094 L 269.957031 358.371094 Z M 269.957031 152.660156 "/>
<path style=" stroke:none;fill-rule:nonzero;fill:rgb(89.408875%,58.428955%,25.878906%);fill-opacity:1;" d="M 194.78125 358.375 L 149.757812 358.375 C 115.613281 358.375 87.929688 330.691406 87.929688 296.542969 L 87.929688 262.21875 C 87.929688 201.714844 136.980469 152.664062 197.492188 152.664062 L 242.507812 152.664062 C 182.003906 152.664062 132.949219 201.714844 132.949219 262.21875 L 132.949219 296.542969 C 132.953125 330.691406 160.632812 358.375 194.78125 358.375 Z M 194.78125 358.375 "/>
<g clip-path="url(#clip1)" clip-rule="nonzero">
<path style=" stroke:none;fill-rule:nonzero;fill:rgb(61.569214%,41.958618%,41.958618%);fill-opacity:1;" d="M 113.714844 311.714844 C 111.691406 315.945312 108.925781 319.902344 105.425781 323.402344 C 88.804688 340.023438 61.859375 340.019531 45.234375 323.398438 C 28.613281 306.773438 28.613281 279.835938 45.234375 263.214844 C 48.738281 259.710938 52.691406 256.949219 56.921875 254.925781 C 49.320312 270.753906 52.082031 290.3125 65.203125 303.433594 C 78.320312 316.550781 97.886719 319.320312 113.714844 311.714844 Z M 113.714844 311.714844 "/>
</g>
<g clip-path="url(#clip2)" clip-rule="nonzero">
<path style=" stroke:none;fill-rule:nonzero;fill:rgb(54.508972%,36.859131%,36.859131%);fill-opacity:1;" d="M 84.683594 334.832031 C 70.929688 337.914062 55.941406 334.101562 45.234375 323.398438 C 28.613281 306.777344 28.613281 279.832031 45.234375 263.210938 C 48.734375 259.710938 52.691406 256.949219 56.921875 254.925781 C 53.046875 262.992188 51.863281 272.035156 53.375 280.695312 C 48.859375 295.292969 52.378906 311.839844 63.9375 323.398438 C 69.855469 329.316406 77.085938 333.128906 84.683594 334.832031 Z M 84.683594 334.832031 "/>
</g>
<g clip-path="url(#clip3)" clip-rule="nonzero">
<path style=" stroke:none;fill-rule:nonzero;fill:rgb(61.569214%,41.958618%,41.958618%);fill-opacity:1;" d="M 328.15625 201.792969 L 328.15625 129.257812 C 328.15625 103.570312 307.332031 82.746094 281.644531 82.746094 L 260.410156 82.746094 L 255.242188 131.652344 L 285.660156 165.648438 L 285.660156 216.140625 C 285.660156 227.875 295.175781 237.390625 306.910156 237.390625 L 324.863281 237.390625 C 334.777344 237.390625 342.8125 229.351562 342.8125 219.4375 C 342.8125 210.652344 336.496094 203.34375 328.15625 201.792969 Z M 328.15625 201.792969 "/>
</g>
<path style=" stroke:none;fill-rule:nonzero;fill:rgb(61.569214%,41.958618%,41.958618%);fill-opacity:1;" d="M 145.140625 201.792969 L 145.140625 129.257812 C 145.140625 103.570312 165.964844 82.746094 191.652344 82.746094 L 212.890625 82.746094 L 218.054688 131.652344 L 187.636719 165.648438 L 187.636719 216.140625 C 187.636719 227.875 178.121094 237.390625 166.386719 237.390625 L 148.4375 237.390625 C 138.523438 237.390625 130.484375 229.351562 130.484375 219.4375 C 130.484375 210.652344 136.800781 203.34375 145.140625 201.792969 Z M 145.140625 201.792969 "/>
<path style=" stroke:none;fill-rule:nonzero;fill:rgb(54.508972%,36.859131%,36.859131%);fill-opacity:1;" d="M 148.582031 207.902344 C 145.960938 211.023438 144.382812 215.042969 144.382812 219.4375 C 144.382812 229.351562 152.421875 237.394531 162.335938 237.394531 L 148.433594 237.394531 C 138.519531 237.394531 130.484375 229.351562 130.484375 219.4375 C 130.484375 215.042969 132.0625 211.023438 134.6875 207.902344 C 137.308594 204.785156 140.96875 202.570312 145.140625 201.792969 L 145.140625 129.257812 C 145.140625 103.570312 165.960938 82.746094 191.652344 82.746094 L 205.546875 82.746094 C 179.863281 82.746094 159.039062 103.570312 159.039062 129.257812 L 159.039062 201.792969 C 154.867188 202.570312 151.207031 204.785156 148.582031 207.902344 Z M 148.582031 207.902344 "/>
<path style=" stroke:none;fill-rule:nonzero;fill:rgb(54.508972%,36.859131%,36.859131%);fill-opacity:1;" d="M 313.792969 236.246094 C 311.636719 236.992188 309.316406 237.390625 306.910156 237.390625 C 295.175781 237.390625 285.660156 227.875 285.660156 216.140625 L 285.660156 165.644531 L 299.429688 132.546875 L 299.429688 216.140625 C 299.429688 225.460938 305.4375 233.386719 313.792969 236.246094 Z M 313.792969 236.246094 "/>
<path style=" stroke:none;fill-rule:nonzero;fill:rgb(88.62915%,47.059631%,69.40918%);fill-opacity:1;" d="M 237.382812 208.511719 C 229.148438 208.511719 222.472656 201.835938 222.472656 193.601562 L 222.472656 166.761719 L 252.292969 166.761719 L 252.292969 193.601562 C 252.292969 201.835938 245.617188 208.511719 237.382812 208.511719 Z M 237.382812 208.511719 "/>
<path style=" stroke:none;fill-rule:nonzero;fill:rgb(92.158508%,69.018555%,26.669312%);fill-opacity:1;" d="M 260.40625 175.191406 L 212.890625 175.191406 C 187.359375 175.191406 166.664062 154.496094 166.664062 128.96875 C 166.664062 103.441406 187.359375 82.746094 212.890625 82.746094 L 260.40625 82.746094 C 285.9375 82.746094 306.632812 103.441406 306.632812 128.96875 C 306.632812 154.496094 285.9375 175.191406 260.40625 175.191406 Z M 260.40625 175.191406 "/>
<path style=" stroke:none;fill-rule:nonzero;fill:rgb(89.408875%,58.428955%,25.878906%);fill-opacity:1;" d="M 242 175.1875 L 212.890625 175.1875 C 187.359375 175.1875 166.664062 154.496094 166.664062 128.96875 C 166.664062 116.203125 171.839844 104.648438 180.203125 96.28125 C 188.570312 87.917969 200.125 82.742188 212.890625 82.742188 L 242 82.742188 C 229.238281 82.742188 217.679688 87.917969 209.316406 96.28125 C 200.953125 104.648438 195.78125 116.203125 195.78125 128.96875 C 195.78125 154.496094 216.472656 175.1875 242 175.1875 Z M 242 175.1875 "/>
<path style=" stroke:none;fill-rule:nonzero;fill:rgb(94.509888%,83.529663%,61.569214%);fill-opacity:1;" d="M 265.425781 144.449219 L 248.863281 144.449219 L 248.863281 82.746094 L 225.898438 82.746094 L 225.898438 144.449219 L 209.339844 144.449219 C 192.359375 144.449219 178.597656 158.214844 178.597656 175.191406 L 178.597656 192.042969 C 178.597656 205.960938 189.878906 217.242188 203.796875 217.242188 C 217.714844 217.242188 228.996094 205.960938 228.996094 192.042969 C 228.996094 187.410156 232.75 183.65625 237.382812 183.65625 C 242.011719 183.65625 245.765625 187.410156 245.765625 192.042969 C 245.765625 205.960938 257.050781 217.242188 270.964844 217.242188 C 284.882812 217.242188 296.167969 205.960938 296.167969 192.042969 L 296.167969 175.191406 C 296.167969 158.214844 282.402344 144.449219 265.425781 144.449219 Z M 265.425781 144.449219 "/>
<path style=" stroke:none;fill-rule:nonzero;fill:rgb(94.509888%,72.549438%,52.549744%);fill-opacity:1;" d="M 190.929688 192.042969 L 190.929688 175.191406 C 190.929688 158.214844 204.691406 144.449219 221.671875 144.449219 L 209.339844 144.449219 C 192.359375 144.449219 178.597656 158.214844 178.597656 175.191406 L 178.597656 192.042969 C 178.597656 205.960938 189.878906 217.242188 203.796875 217.242188 C 205.925781 217.242188 207.988281 216.976562 209.960938 216.480469 C 199.027344 213.726562 190.929688 203.832031 190.929688 192.042969 Z M 190.929688 192.042969 "/>
<path style=" stroke:none;fill-rule:nonzero;fill:rgb(94.509888%,72.549438%,52.549744%);fill-opacity:1;" d="M 258.097656 192.042969 C 258.097656 187.410156 254.34375 183.65625 249.714844 183.65625 C 247.269531 183.65625 245.078125 184.707031 243.546875 186.371094 C 244.921875 187.867188 245.769531 189.851562 245.769531 192.042969 C 245.769531 205.960938 257.050781 217.242188 270.96875 217.242188 C 273.09375 217.242188 275.160156 216.976562 277.132812 216.480469 C 266.195312 213.726562 258.097656 203.832031 258.097656 192.042969 Z M 258.097656 192.042969 "/>
<path style=" stroke:none;fill-rule:nonzero;fill:rgb(16.859436%,30.198669%,39.99939%);fill-opacity:1;" d="M 207.59375 133.648438 C 205.007812 133.648438 202.914062 131.550781 202.914062 128.96875 L 202.914062 120.765625 C 202.914062 118.183594 205.007812 116.085938 207.59375 116.085938 C 210.175781 116.085938 212.269531 118.183594 212.269531 120.765625 L 212.269531 128.96875 C 212.269531 131.550781 210.175781 133.648438 207.59375 133.648438 Z M 207.59375 133.648438 "/>
<path style=" stroke:none;fill-rule:nonzero;fill:rgb(16.859436%,30.198669%,39.99939%);fill-opacity:1;" d="M 267.171875 133.648438 C 264.589844 133.648438 262.496094 131.550781 262.496094 128.96875 L 262.496094 120.765625 C 262.496094 118.183594 264.589844 116.085938 267.171875 116.085938 C 269.757812 116.085938 271.851562 118.183594 271.851562 120.765625 L 271.851562 128.96875 C 271.851562 131.550781 269.757812 133.648438 267.171875 133.648438 Z M 267.171875 133.648438 "/>
<path style=" stroke:none;fill-rule:nonzero;fill:rgb(21.179199%,36.859131%,49.01886%);fill-opacity:1;" d="M 246.523438 139.152344 L 228.238281 139.152344 C 221.578125 139.152344 216.175781 144.554688 216.175781 151.21875 C 216.175781 157.882812 221.578125 163.285156 228.238281 163.285156 L 246.523438 163.285156 C 253.1875 163.285156 258.589844 157.882812 258.589844 151.21875 C 258.589844 144.554688 253.1875 139.152344 246.523438 139.152344 Z M 246.523438 139.152344 "/>
<path style=" stroke:none;fill-rule:nonzero;fill:rgb(16.859436%,30.198669%,39.99939%);fill-opacity:1;" d="M 235.359375 159.75 C 237.546875 161.929688 240.5625 163.285156 243.890625 163.285156 L 228.238281 163.285156 C 224.90625 163.285156 221.894531 161.929688 219.707031 159.75 C 217.523438 157.5625 216.175781 154.546875 216.175781 151.21875 C 216.175781 144.550781 221.578125 139.148438 228.238281 139.148438 L 243.890625 139.148438 C 237.230469 139.148438 231.828125 144.550781 231.828125 151.21875 C 231.828125 154.546875 233.179688 157.5625 235.359375 159.75 Z M 235.359375 159.75 "/>
<path style=" stroke:none;fill-rule:nonzero;fill:rgb(88.62915%,65.489197%,43.919373%);fill-opacity:1;" d="M 276.867188 168.988281 C 274.28125 168.988281 272.1875 166.890625 272.1875 164.308594 L 272.1875 163.96875 C 272.1875 161.382812 274.28125 159.289062 276.867188 159.289062 C 279.449219 159.289062 281.542969 161.382812 281.542969 163.96875 L 281.542969 164.308594 C 281.542969 166.890625 279.449219 168.988281 276.867188 168.988281 Z M 276.867188 168.988281 "/>
<path style=" stroke:none;fill-rule:nonzero;fill:rgb(88.62915%,65.489197%,43.919373%);fill-opacity:1;" d="M 276.867188 182.625 C 274.28125 182.625 272.1875 180.53125 272.1875 177.945312 L 272.1875 177.605469 C 272.1875 175.019531 274.28125 172.925781 276.867188 172.925781 C 279.449219 172.925781 281.542969 175.019531 281.542969 177.605469 L 281.542969 177.945312 C 281.542969 180.53125 279.449219 182.625 276.867188 182.625 Z M 276.867188 182.625 "/>
<path style=" stroke:none;fill-rule:nonzero;fill:rgb(88.62915%,65.489197%,43.919373%);fill-opacity:1;" d="M 266.636719 175.804688 C 264.050781 175.804688 261.957031 173.710938 261.957031 171.128906 L 261.957031 170.785156 C 261.957031 168.203125 264.050781 166.109375 266.636719 166.109375 C 269.21875 166.109375 271.316406 168.203125 271.316406 170.785156 L 271.316406 171.128906 C 271.316406 173.710938 269.222656 175.804688 266.636719 175.804688 Z M 266.636719 175.804688 "/>
<path style=" stroke:none;fill-rule:nonzero;fill:rgb(88.62915%,65.489197%,43.919373%);fill-opacity:1;" d="M 197.898438 168.988281 C 195.3125 168.988281 193.21875 166.890625 193.21875 164.308594 L 193.21875 163.96875 C 193.21875 161.382812 195.316406 159.289062 197.898438 159.289062 C 200.484375 159.289062 202.578125 161.382812 202.578125 163.96875 L 202.578125 164.308594 C 202.578125 166.890625 200.484375 168.988281 197.898438 168.988281 Z M 197.898438 168.988281 "/>
<path style=" stroke:none;fill-rule:nonzero;fill:rgb(88.62915%,65.489197%,43.919373%);fill-opacity:1;" d="M 197.898438 182.625 C 195.3125 182.625 193.21875 180.53125 193.21875 177.945312 L 193.21875 177.605469 C 193.21875 175.019531 195.316406 172.925781 197.898438 172.925781 C 200.484375 172.925781 202.578125 175.019531 202.578125 177.605469 L 202.578125 177.945312 C 202.578125 180.53125 200.484375 182.625 197.898438 182.625 Z M 197.898438 182.625 "/>
<path style=" stroke:none;fill-rule:nonzero;fill:rgb(88.62915%,65.489197%,43.919373%);fill-opacity:1;" d="M 208.128906 175.804688 C 205.542969 175.804688 203.449219 173.710938 203.449219 171.128906 L 203.449219 170.785156 C 203.449219 168.203125 205.542969 166.109375 208.128906 166.109375 C 210.710938 166.109375 212.808594 168.203125 212.808594 170.785156 L 212.808594 171.128906 C 212.808594 173.710938 210.710938 175.804688 208.128906 175.804688 Z M 208.128906 175.804688 "/>
<path style=" stroke:none;fill-rule:nonzero;fill:rgb(92.158508%,69.018555%,26.669312%);fill-opacity:1;" d="M 246.265625 259.167969 L 246.265625 358.371094 L 269.953125 358.371094 C 276.496094 358.371094 281.796875 353.070312 281.796875 346.527344 C 281.796875 339.988281 276.496094 334.683594 269.953125 334.683594 L 269.953125 259.167969 "/>
<path style=" stroke:none;fill-rule:nonzero;fill:rgb(89.408875%,58.428955%,25.878906%);fill-opacity:1;" d="M 246.265625 259.167969 L 259.984375 259.167969 L 259.984375 358.371094 L 246.265625 358.371094 Z M 246.265625 259.167969 "/>
<path style=" stroke:none;fill-rule:nonzero;fill:rgb(92.158508%,69.018555%,26.669312%);fill-opacity:1;" d="M 222.578125 259.167969 L 222.578125 358.371094 L 246.265625 358.371094 C 252.808594 358.371094 258.109375 353.070312 258.109375 346.527344 C 258.109375 339.988281 252.808594 334.683594 246.265625 334.683594 L 246.265625 259.167969 "/>
<path style=" stroke:none;fill-rule:nonzero;fill:rgb(89.408875%,58.428955%,25.878906%);fill-opacity:1;" d="M 222.578125 259.167969 L 233.175781 259.167969 L 233.175781 358.371094 L 222.578125 358.371094 Z M 222.578125 259.167969 "/>
<path style=" stroke:none;fill-rule:nonzero;fill:rgb(92.158508%,69.018555%,26.669312%);fill-opacity:1;" d="M 168.96875 333.972656 L 168.96875 290.316406 C 168.96875 267.9375 150.828125 249.796875 128.449219 249.796875 C 106.070312 249.796875 87.929688 267.9375 87.929688 290.316406 L 87.929688 321.949219 C 87.929688 342.066406 104.238281 358.371094 124.355469 358.371094 L 168.96875 358.371094 C 175.707031 358.371094 181.167969 352.910156 181.167969 346.171875 C 181.167969 339.433594 175.707031 333.972656 168.96875 333.972656 Z M 168.96875 333.972656 "/>
<path style=" stroke:none;fill-rule:nonzero;fill:rgb(89.408875%,58.428955%,25.878906%);fill-opacity:1;" d="M 182.105469 333.972656 L 182.105469 290.316406 C 182.105469 267.9375 163.964844 249.796875 141.585938 249.796875 C 119.207031 249.796875 101.066406 267.9375 101.066406 290.316406 L 101.066406 321.949219 C 101.066406 342.066406 117.371094 358.371094 137.488281 358.371094 L 182.105469 358.371094 C 188.84375 358.371094 194.304688 352.910156 194.304688 346.171875 C 194.304688 339.433594 188.84375 333.972656 182.105469 333.972656 Z M 182.105469 333.972656 "/>
<path style=" stroke:none;fill-rule:nonzero;fill:rgb(92.158508%,69.018555%,26.669312%);fill-opacity:1;" d="M 181.171875 346.171875 C 181.171875 352.910156 175.707031 358.375 168.96875 358.375 L 124.351562 358.375 C 104.234375 358.375 87.929688 342.0625 87.929688 321.949219 L 87.929688 290.316406 C 87.929688 279.125 92.464844 269 99.792969 261.664062 C 107.128906 254.332031 117.261719 249.796875 128.453125 249.796875 C 150.828125 249.796875 168.96875 267.9375 168.96875 290.316406 L 168.96875 333.96875 C 172.339844 333.96875 175.386719 335.335938 177.597656 337.546875 C 179.804688 339.753906 181.171875 342.804688 181.171875 346.171875 Z M 181.171875 346.171875 "/>
<path style=" stroke:none;fill-rule:nonzero;fill:rgb(89.408875%,58.428955%,25.878906%);fill-opacity:1;" d="M 148.667969 358.367188 L 124.351562 358.367188 C 104.234375 358.367188 87.929688 342.058594 87.929688 321.945312 L 87.929688 290.316406 C 87.929688 279.125 92.464844 268.996094 99.796875 261.660156 C 107.125 254.328125 117.261719 249.792969 128.445312 249.792969 C 132.683594 249.792969 136.761719 250.441406 140.605469 251.648438 C 134.300781 253.625 128.664062 257.105469 124.109375 261.660156 C 116.773438 268.996094 112.238281 279.125 112.238281 290.316406 L 112.238281 321.945312 C 112.238281 342.058594 128.546875 358.367188 148.667969 358.367188 Z M 148.667969 358.367188 "/>
<path style=" stroke:none;fill-rule:nonzero;fill:rgb(89.408875%,58.428955%,25.878906%);fill-opacity:1;" d="M 148.71875 314.027344 L 148.71875 358.375 L 139.363281 358.375 L 139.363281 314.027344 C 139.363281 310.191406 136.238281 307.066406 132.398438 307.066406 C 128.5625 307.066406 125.445312 310.191406 125.445312 314.027344 C 125.445312 316.609375 123.347656 318.707031 120.765625 318.707031 C 118.183594 318.707031 116.089844 316.609375 116.089844 314.027344 C 116.089844 305.023438 123.40625 297.707031 132.402344 297.707031 C 141.394531 297.707031 148.71875 305.023438 148.71875 314.027344 Z M 148.71875 314.027344 "/>
</g>
</svg>
