<svg id="ewCjrJPQUZo1" xmlns="http://www.w3.org/2000/svg" xmlns:xlink="http://www.w3.org/1999/xlink" viewBox="0 0 375 374.999991" shape-rendering="geometricPrecision" text-rendering="geometricPrecision"><style><![CDATA[#ewCjrJPQUZo6_tr {animation: ewCjrJPQUZo6_tr__tr 300ms linear infinite normal forwards}@keyframes ewCjrJPQUZo6_tr__tr { 0% {transform: translate(73.241699px,295.395996px) rotate(0.212472deg)} 33.333333% {transform: translate(73.241699px,295.395996px) rotate(-21.929465deg)} 66.666667% {transform: translate(73.241699px,295.395996px) rotate(0.210000deg)} 100% {transform: translate(73.241699px,295.395996px) rotate(0.212472deg)}}]]></style><g id="ewCjrJPQUZo2"><path id="ewCjrJPQUZo3" d="M187.500000,0C184.574219,0,181.652344,0.070313,178.730469,0.214844C175.808594,0.359375,172.890625,0.574219,169.980469,0.859375C167.070312,1.148438,164.167969,1.503906,161.273438,1.933594C158.378906,2.363281,155.500000,2.863281,152.628906,3.433594C149.761719,4.003906,146.906250,4.644531,144.070312,5.355469C141.234375,6.066406,138.414062,6.847656,135.613281,7.695312C132.816406,8.546875,130.039062,9.460938,127.285156,10.449219C124.531250,11.433594,121.800781,12.484375,119.101562,13.605469C116.398438,14.726562,113.722656,15.910156,111.078125,17.160156C108.433594,18.410156,105.824219,19.726562,103.242188,21.105469C100.664062,22.484375,98.121094,23.925781,95.609375,25.429688C93.101562,26.933594,90.628906,28.496094,88.199219,30.121094C85.765625,31.746094,83.375000,33.433594,81.027344,35.175781C78.675781,36.917969,76.371094,38.714844,74.109375,40.570312C71.847656,42.425781,69.632812,44.335938,67.464844,46.300781C65.300781,48.265625,63.179688,50.281250,61.113281,52.351562C59.042969,54.417969,57.027344,56.539062,55.062500,58.703125C53.097656,60.871094,51.187500,63.085938,49.332031,65.347656C47.476562,67.609375,45.679688,69.914062,43.937500,72.265625C42.195312,74.613281,40.507812,77.003906,38.882812,79.437500C37.257812,81.867188,35.695312,84.339844,34.191406,86.847656C32.687500,89.359375,31.246094,91.902344,29.867188,94.480469C28.488281,97.062500,27.171875,99.671875,25.921875,102.316406C24.671875,104.960938,23.488281,107.636719,22.367188,110.339844C21.246094,113.039062,20.195312,115.769531,19.210938,118.523438C18.222656,121.277344,17.308594,124.054688,16.457031,126.851562C15.609375,129.652344,14.828125,132.472656,14.117188,135.308594C13.406250,138.144531,12.765625,141,12.195312,143.867188C11.625000,146.738281,11.125000,149.617188,10.695312,152.511719C10.265625,155.406250,9.910156,158.308594,9.621094,161.218750C9.335938,164.128906,9.121094,167.046875,8.976562,169.968750C8.832031,172.890625,8.761719,175.812500,8.761719,178.738281C8.761719,181.664062,8.832031,184.585938,8.976562,187.507812C9.121094,190.429688,9.335938,193.347656,9.621094,196.257812C9.910156,199.167969,10.265625,202.070312,10.695312,204.964844C11.125000,207.859375,11.625000,210.738281,12.195312,213.609375C12.765625,216.476562,13.406250,219.332031,14.117188,222.167969C14.828125,225.003906,15.609375,227.824219,16.457031,230.625000C17.308594,233.421875,18.222656,236.199219,19.210938,238.953125C20.195312,241.707031,21.246094,244.437500,22.367188,247.136719C23.488281,249.839844,24.671875,252.515625,25.921875,255.160156C27.171875,257.804688,28.488281,260.414062,29.867188,262.996094C31.246094,265.574219,32.687500,268.117188,34.191406,270.628906C35.695312,273.136719,37.257812,275.609375,38.882812,278.039062C40.507812,280.472656,42.195312,282.863281,43.937500,285.210938C45.679688,287.562500,47.476562,289.867188,49.332031,292.128906C51.187500,294.390625,53.097656,296.605469,55.062500,298.773438C57.027344,300.937500,59.042969,303.058594,61.113281,305.125000C63.179688,307.195312,65.300781,309.210938,67.464844,311.175781C69.632812,313.140625,71.847656,315.050781,74.109375,316.906250C76.371094,318.761719,78.675781,320.558594,81.027344,322.300781C83.375000,324.042969,85.765625,325.730469,88.199219,327.355469C90.628906,328.980469,93.101562,330.542969,95.609375,332.046875C98.121094,333.550781,100.664062,334.992188,103.242188,336.371094C105.824219,337.750000,108.433594,339.066406,111.078125,340.316406C113.722656,341.566406,116.398438,342.750000,119.101562,343.871094C121.800781,344.992188,124.531250,346.042969,127.285156,347.027344C130.039062,348.015625,132.816406,348.929688,135.613281,349.781250C138.414062,350.628906,141.234375,351.410156,144.070312,352.121094C146.906250,352.832031,149.761719,353.472656,152.628906,354.042969C155.500000,354.613281,158.378906,355.113281,161.273438,355.542969C164.167969,355.972656,167.070312,356.328125,169.980469,356.617188C172.890625,356.902344,175.808594,357.117188,178.730469,357.261719C181.652344,357.406250,184.574219,357.476562,187.500000,357.476562C190.425781,357.476562,193.347656,357.406250,196.269531,357.261719C199.191406,357.117188,202.109375,356.902344,205.019531,356.617188C207.929688,356.328125,210.832031,355.972656,213.726562,355.542969C216.621094,355.113281,219.500000,354.613281,222.371094,354.042969C225.238281,353.472656,228.093750,352.832031,230.929688,352.121094C233.765625,351.410156,236.585938,350.628906,239.386719,349.781250C242.183594,348.929688,244.960938,348.015625,247.714844,347.027344C250.468750,346.042969,253.199219,344.992188,255.898438,343.871094C258.601562,342.750000,261.277344,341.566406,263.921875,340.316406C266.566406,339.066406,269.175781,337.750000,271.757812,336.371094C274.335938,334.992188,276.878906,333.550781,279.390625,332.046875C281.898438,330.542969,284.371094,328.980469,286.800781,327.355469C289.234375,325.730469,291.625000,324.042969,293.972656,322.300781C296.324219,320.558594,298.628906,318.761719,300.890625,316.906250C303.152344,315.050781,305.367188,313.140625,307.535156,311.175781C309.699219,309.210938,311.820312,307.195312,313.886719,305.125000C315.957031,303.058594,317.972656,300.937500,319.937500,298.773438C321.902344,296.605469,323.812500,294.390625,325.667969,292.128906C327.523438,289.867188,329.320312,287.562500,331.062500,285.210938C332.804688,282.863281,334.492188,280.472656,336.117188,278.039062C337.742188,275.609375,339.304688,273.136719,340.808594,270.628906C342.312500,268.117188,343.753906,265.574219,345.132812,262.996094C346.511719,260.414062,347.828125,257.804688,349.078125,255.160156C350.328125,252.515625,351.511719,249.839844,352.632812,247.136719C353.753906,244.437500,354.804688,241.707031,355.789062,238.953125C356.777344,236.199219,357.691406,233.421875,358.542969,230.625000C359.390625,227.824219,360.171875,225.003906,360.882812,222.167969C361.593750,219.332031,362.234375,216.476562,362.804688,213.609375C363.375000,210.738281,363.875000,207.859375,364.304688,204.964844C364.734375,202.070312,365.089844,199.167969,365.378906,196.257812C365.664062,193.347656,365.878906,190.429688,366.023438,187.507812C366.167969,184.585938,366.238281,181.664062,366.238281,178.738281C366.238281,175.812500,366.167969,172.890625,366.023438,169.968750C365.878906,167.046875,365.664062,164.128906,365.378906,161.218750C365.089844,158.308594,364.734375,155.406250,364.304688,152.511719C363.875000,149.617188,363.375000,146.738281,362.804688,143.867188C362.234375,141,361.593750,138.144531,360.882812,135.308594C360.171875,132.472656,359.390625,129.652344,358.542969,126.851562C357.691406,124.054688,356.773438,121.277344,355.789062,118.523438C354.804688,115.769531,353.753906,113.039062,352.632812,110.339844C351.511719,107.636719,350.328125,104.960938,349.078125,102.316406C347.828125,99.671875,346.511719,97.062500,345.132812,94.480469C343.753906,91.902344,342.312500,89.359375,340.808594,86.847656C339.304688,84.339844,337.742188,81.867188,336.117188,79.437500C334.492188,77.003906,332.804688,74.613281,331.062500,72.265625C329.320312,69.914062,327.523438,67.609375,325.667969,65.347656C323.812500,63.085938,321.902344,60.871094,319.937500,58.703125C317.972656,56.539062,315.957031,54.417969,313.886719,52.351562C311.820312,50.281250,309.699219,48.265625,307.535156,46.300781C305.367188,44.335938,303.152344,42.425781,300.890625,40.570312C298.628906,38.714844,296.324219,36.917969,293.972656,35.175781C291.625000,33.433594,289.234375,31.746094,286.800781,30.121094C284.371094,28.496094,281.898438,26.933594,279.390625,25.429688C276.878906,23.925781,274.335938,22.484375,271.757812,21.105469C269.175781,19.726562,266.566406,18.410156,263.921875,17.160156C261.277344,15.910156,258.601562,14.726562,255.898438,13.605469C253.199219,12.484375,250.468750,11.433594,247.714844,10.449219C244.960938,9.460938,242.183594,8.546875,239.386719,7.695312C236.585938,6.847656,233.765625,6.066406,230.929688,5.355469C228.093750,4.644531,225.238281,4.003906,222.371094,3.433594C219.500000,2.863281,216.621094,2.363281,213.726562,1.933594C210.832031,1.503906,207.929688,1.148438,205.019531,0.859375C202.109375,0.574219,199.191406,0.359375,196.269531,0.214844C193.347656,0.070313,190.425781,0,187.500000,0ZM187.500000,0" fill="rgb(255,255,255)" stroke="none" stroke-width="1"/><path id="ewCjrJPQUZo4" d="M269.957031,152.660156L197.492188,152.660156C136.984375,152.660156,87.929688,201.710938,87.929688,262.218750L87.929688,296.539062C87.929688,330.687500,115.613281,358.371094,149.761719,358.371094L269.957031,358.371094ZM269.957031,152.660156" fill="rgb(235,176,68)" stroke="none" stroke-width="1"/><path id="ewCjrJPQUZo5" d="M194.781250,358.375000L149.757812,358.375000C115.613281,358.375000,87.929688,330.691406,87.929688,296.542969L87.929688,262.218750C87.929688,201.714844,136.980469,152.664062,197.492188,152.664062L242.507812,152.664062C182.003906,152.664062,132.949219,201.714844,132.949219,262.218750L132.949219,296.542969C132.953125,330.691406,160.632812,358.375000,194.781250,358.375000ZM194.781250,358.375000" fill="rgb(228,149,66)" stroke="none" stroke-width="1"/><g id="ewCjrJPQUZo6_tr" transform="translate(73.241699,295.395996) rotate(0.212472)"><g id="ewCjrJPQUZo6" transform="translate(-73.241699,-295.395996)"><g id="ewCjrJPQUZo7" clip-path="url(#ewCjrJPQUZo10)"><g id="ewCjrJPQUZo8"><path id="ewCjrJPQUZo9" d="M113.714844,311.714844C111.691406,315.945312,108.925781,319.902344,105.425781,323.402344C88.804688,340.023438,61.859375,340.019531,45.234375,323.398438C28.613281,306.773438,28.613281,279.835938,45.234375,263.214844C48.738281,259.710938,52.691406,256.949219,56.921875,254.925781C49.320312,270.753906,52.082031,290.312500,65.203125,303.433594C78.320312,316.550781,97.886719,319.320312,113.714844,311.714844ZM113.714844,311.714844" fill="rgb(157,107,107)" stroke="none" stroke-width="1"/></g><clipPath id="ewCjrJPQUZo10"><path id="ewCjrJPQUZo11" d="M32.769531,254L114,254L114,336L32.769531,336ZM32.769531,254" fill="rgb(0,0,0)" stroke="none" stroke-width="1"/></clipPath></g><g id="ewCjrJPQUZo12" clip-path="url(#ewCjrJPQUZo15)"><g id="ewCjrJPQUZo13"><path id="ewCjrJPQUZo14" d="M84.683594,334.832031C70.929688,337.914062,55.941406,334.101562,45.234375,323.398438C28.613281,306.777344,28.613281,279.832031,45.234375,263.210938C48.734375,259.710938,52.691406,256.949219,56.921875,254.925781C53.046875,262.992188,51.863281,272.035156,53.375000,280.695312C48.859375,295.292969,52.378906,311.839844,63.937500,323.398438C69.855469,329.316406,77.085938,333.128906,84.683594,334.832031ZM84.683594,334.832031" fill="rgb(139,94,94)" stroke="none" stroke-width="1"/></g><clipPath id="ewCjrJPQUZo15"><path id="ewCjrJPQUZo16" d="M32.769531,254L85,254L85,336L32.769531,336ZM32.769531,254" fill="rgb(0,0,0)" stroke="none" stroke-width="1"/></clipPath></g></g></g><g id="ewCjrJPQUZo17" clip-path="url(#ewCjrJPQUZo20)"><g id="ewCjrJPQUZo18"><path id="ewCjrJPQUZo19" d="M328.156250,201.792969L328.156250,129.257812C328.156250,103.570312,307.332031,82.746094,281.644531,82.746094L260.410156,82.746094L255.242188,131.652344L285.660156,165.648438L285.660156,216.140625C285.660156,227.875000,295.175781,237.390625,306.910156,237.390625L324.863281,237.390625C334.777344,237.390625,342.812500,229.351562,342.812500,219.437500C342.812500,210.652344,336.496094,203.343750,328.156250,201.792969ZM328.156250,201.792969" fill="rgb(157,107,107)" stroke="none" stroke-width="1"/></g><clipPath id="ewCjrJPQUZo20"><path id="ewCjrJPQUZo21" d="M255,82L342.519531,82L342.519531,238L255,238ZM255,82" fill="rgb(0,0,0)" stroke="none" stroke-width="1"/></clipPath></g><path id="ewCjrJPQUZo22" d="M145.140625,201.792969L145.140625,129.257812C145.140625,103.570312,165.964844,82.746094,191.652344,82.746094L212.890625,82.746094L218.054688,131.652344L187.636719,165.648438L187.636719,216.140625C187.636719,227.875000,178.121094,237.390625,166.386719,237.390625L148.437500,237.390625C138.523438,237.390625,130.484375,229.351562,130.484375,219.437500C130.484375,210.652344,136.800781,203.343750,145.140625,201.792969ZM145.140625,201.792969" fill="rgb(157,107,107)" stroke="none" stroke-width="1"/><path id="ewCjrJPQUZo23" d="M148.582031,207.902344C145.960938,211.023438,144.382812,215.042969,144.382812,219.437500C144.382812,229.351562,152.421875,237.394531,162.335938,237.394531L148.433594,237.394531C138.519531,237.394531,130.484375,229.351562,130.484375,219.437500C130.484375,215.042969,132.062500,211.023438,134.687500,207.902344C137.308594,204.785156,140.968750,202.570312,145.140625,201.792969L145.140625,129.257812C145.140625,103.570312,165.960938,82.746094,191.652344,82.746094L205.546875,82.746094C179.863281,82.746094,159.039062,103.570312,159.039062,129.257812L159.039062,201.792969C154.867188,202.570312,151.207031,204.785156,148.582031,207.902344ZM148.582031,207.902344" fill="rgb(139,94,94)" stroke="none" stroke-width="1"/><path id="ewCjrJPQUZo24" d="M313.792969,236.246094C311.636719,236.992188,309.316406,237.390625,306.910156,237.390625C295.175781,237.390625,285.660156,227.875000,285.660156,216.140625L285.660156,165.644531L299.429688,132.546875L299.429688,216.140625C299.429688,225.460938,305.437500,233.386719,313.792969,236.246094ZM313.792969,236.246094" fill="rgb(139,94,94)" stroke="none" stroke-width="1"/><path id="ewCjrJPQUZo25" d="M237.382812,208.511719C229.148438,208.511719,222.472656,201.835938,222.472656,193.601562L222.472656,166.761719L252.292969,166.761719L252.292969,193.601562C252.292969,201.835938,245.617188,208.511719,237.382812,208.511719ZM237.382812,208.511719" fill="rgb(226,120,177)" stroke="none" stroke-width="1"/><path id="ewCjrJPQUZo26" d="M260.406250,175.191406L212.890625,175.191406C187.359375,175.191406,166.664062,154.496094,166.664062,128.968750C166.664062,103.441406,187.359375,82.746094,212.890625,82.746094L260.406250,82.746094C285.937500,82.746094,306.632812,103.441406,306.632812,128.968750C306.632812,154.496094,285.937500,175.191406,260.406250,175.191406ZM260.406250,175.191406" fill="rgb(235,176,68)" stroke="none" stroke-width="1"/><path id="ewCjrJPQUZo27" d="M242,175.187500L212.890625,175.187500C187.359375,175.187500,166.664062,154.496094,166.664062,128.968750C166.664062,116.203125,171.839844,104.648438,180.203125,96.281250C188.570312,87.917969,200.125000,82.742188,212.890625,82.742188L242,82.742188C229.238281,82.742188,217.679688,87.917969,209.316406,96.281250C200.953125,104.648438,195.781250,116.203125,195.781250,128.968750C195.781250,154.496094,216.472656,175.187500,242,175.187500ZM242,175.187500" fill="rgb(228,149,66)" stroke="none" stroke-width="1"/><path id="ewCjrJPQUZo28" d="M265.425781,144.449219L248.863281,144.449219L248.863281,82.746094L225.898438,82.746094L225.898438,144.449219L209.339844,144.449219C192.359375,144.449219,178.597656,158.214844,178.597656,175.191406L178.597656,192.042969C178.597656,205.960938,189.878906,217.242188,203.796875,217.242188C217.714844,217.242188,228.996094,205.960938,228.996094,192.042969C228.996094,187.410156,232.750000,183.656250,237.382812,183.656250C242.011719,183.656250,245.765625,187.410156,245.765625,192.042969C245.765625,205.960938,257.050781,217.242188,270.964844,217.242188C284.882812,217.242188,296.167969,205.960938,296.167969,192.042969L296.167969,175.191406C296.167969,158.214844,282.402344,144.449219,265.425781,144.449219ZM265.425781,144.449219" fill="rgb(241,213,157)" stroke="none" stroke-width="1"/><path id="ewCjrJPQUZo29" d="M190.929688,192.042969L190.929688,175.191406C190.929688,158.214844,204.691406,144.449219,221.671875,144.449219L209.339844,144.449219C192.359375,144.449219,178.597656,158.214844,178.597656,175.191406L178.597656,192.042969C178.597656,205.960938,189.878906,217.242188,203.796875,217.242188C205.925781,217.242188,207.988281,216.976562,209.960938,216.480469C199.027344,213.726562,190.929688,203.832031,190.929688,192.042969ZM190.929688,192.042969" fill="rgb(241,185,134)" stroke="none" stroke-width="1"/><path id="ewCjrJPQUZo30" d="M258.097656,192.042969C258.097656,187.410156,254.343750,183.656250,249.714844,183.656250C247.269531,183.656250,245.078125,184.707031,243.546875,186.371094C244.921875,187.867188,245.769531,189.851562,245.769531,192.042969C245.769531,205.960938,257.050781,217.242188,270.968750,217.242188C273.093750,217.242188,275.160156,216.976562,277.132812,216.480469C266.195312,213.726562,258.097656,203.832031,258.097656,192.042969ZM258.097656,192.042969" fill="rgb(241,185,134)" stroke="none" stroke-width="1"/><path id="ewCjrJPQUZo31" d="M207.593750,133.648438C205.007812,133.648438,202.914062,131.550781,202.914062,128.968750L202.914062,120.765625C202.914062,118.183594,205.007812,116.085938,207.593750,116.085938C210.175781,116.085938,212.269531,118.183594,212.269531,120.765625L212.269531,128.968750C212.269531,131.550781,210.175781,133.648438,207.593750,133.648438ZM207.593750,133.648438" fill="rgb(43,77,102)" stroke="none" stroke-width="1"/><path id="ewCjrJPQUZo32" d="M267.171875,133.648438C264.589844,133.648438,262.496094,131.550781,262.496094,128.968750L262.496094,120.765625C262.496094,118.183594,264.589844,116.085938,267.171875,116.085938C269.757812,116.085938,271.851562,118.183594,271.851562,120.765625L271.851562,128.968750C271.851562,131.550781,269.757812,133.648438,267.171875,133.648438ZM267.171875,133.648438" fill="rgb(43,77,102)" stroke="none" stroke-width="1"/><path id="ewCjrJPQUZo33" d="M246.523438,139.152344L228.238281,139.152344C221.578125,139.152344,216.175781,144.554688,216.175781,151.218750C216.175781,157.882812,221.578125,163.285156,228.238281,163.285156L246.523438,163.285156C253.187500,163.285156,258.589844,157.882812,258.589844,151.218750C258.589844,144.554688,253.187500,139.152344,246.523438,139.152344ZM246.523438,139.152344" fill="rgb(54,94,125)" stroke="none" stroke-width="1"/><path id="ewCjrJPQUZo34" d="M235.359375,159.750000C237.546875,161.929688,240.562500,163.285156,243.890625,163.285156L228.238281,163.285156C224.906250,163.285156,221.894531,161.929688,219.707031,159.750000C217.523438,157.562500,216.175781,154.546875,216.175781,151.218750C216.175781,144.550781,221.578125,139.148438,228.238281,139.148438L243.890625,139.148438C237.230469,139.148438,231.828125,144.550781,231.828125,151.218750C231.828125,154.546875,233.179688,157.562500,235.359375,159.750000ZM235.359375,159.750000" fill="rgb(43,77,102)" stroke="none" stroke-width="1"/><path id="ewCjrJPQUZo35" d="M276.867188,168.988281C274.281250,168.988281,272.187500,166.890625,272.187500,164.308594L272.187500,163.968750C272.187500,161.382812,274.281250,159.289062,276.867188,159.289062C279.449219,159.289062,281.542969,161.382812,281.542969,163.968750L281.542969,164.308594C281.542969,166.890625,279.449219,168.988281,276.867188,168.988281ZM276.867188,168.988281" fill="rgb(226,167,112)" stroke="none" stroke-width="1"/><path id="ewCjrJPQUZo36" d="M276.867188,182.625000C274.281250,182.625000,272.187500,180.531250,272.187500,177.945312L272.187500,177.605469C272.187500,175.019531,274.281250,172.925781,276.867188,172.925781C279.449219,172.925781,281.542969,175.019531,281.542969,177.605469L281.542969,177.945312C281.542969,180.531250,279.449219,182.625000,276.867188,182.625000ZM276.867188,182.625000" fill="rgb(226,167,112)" stroke="none" stroke-width="1"/><path id="ewCjrJPQUZo37" d="M266.636719,175.804688C264.050781,175.804688,261.957031,173.710938,261.957031,171.128906L261.957031,170.785156C261.957031,168.203125,264.050781,166.109375,266.636719,166.109375C269.218750,166.109375,271.316406,168.203125,271.316406,170.785156L271.316406,171.128906C271.316406,173.710938,269.222656,175.804688,266.636719,175.804688ZM266.636719,175.804688" fill="rgb(226,167,112)" stroke="none" stroke-width="1"/><path id="ewCjrJPQUZo38" d="M197.898438,168.988281C195.312500,168.988281,193.218750,166.890625,193.218750,164.308594L193.218750,163.968750C193.218750,161.382812,195.316406,159.289062,197.898438,159.289062C200.484375,159.289062,202.578125,161.382812,202.578125,163.968750L202.578125,164.308594C202.578125,166.890625,200.484375,168.988281,197.898438,168.988281ZM197.898438,168.988281" fill="rgb(226,167,112)" stroke="none" stroke-width="1"/><path id="ewCjrJPQUZo39" d="M197.898438,182.625000C195.312500,182.625000,193.218750,180.531250,193.218750,177.945312L193.218750,177.605469C193.218750,175.019531,195.316406,172.925781,197.898438,172.925781C200.484375,172.925781,202.578125,175.019531,202.578125,177.605469L202.578125,177.945312C202.578125,180.531250,200.484375,182.625000,197.898438,182.625000ZM197.898438,182.625000" fill="rgb(226,167,112)" stroke="none" stroke-width="1"/><path id="ewCjrJPQUZo40" d="M208.128906,175.804688C205.542969,175.804688,203.449219,173.710938,203.449219,171.128906L203.449219,170.785156C203.449219,168.203125,205.542969,166.109375,208.128906,166.109375C210.710938,166.109375,212.808594,168.203125,212.808594,170.785156L212.808594,171.128906C212.808594,173.710938,210.710938,175.804688,208.128906,175.804688ZM208.128906,175.804688" fill="rgb(226,167,112)" stroke="none" stroke-width="1"/><path id="ewCjrJPQUZo41" d="M246.265625,259.167969L246.265625,358.371094L269.953125,358.371094C276.496094,358.371094,281.796875,353.070312,281.796875,346.527344C281.796875,339.988281,276.496094,334.683594,269.953125,334.683594L269.953125,259.167969" fill="rgb(235,176,68)" stroke="none" stroke-width="1"/><path id="ewCjrJPQUZo42" d="M246.265625,259.167969L259.984375,259.167969L259.984375,358.371094L246.265625,358.371094ZM246.265625,259.167969" fill="rgb(228,149,66)" stroke="none" stroke-width="1"/><path id="ewCjrJPQUZo43" d="M222.578125,259.167969L222.578125,358.371094L246.265625,358.371094C252.808594,358.371094,258.109375,353.070312,258.109375,346.527344C258.109375,339.988281,252.808594,334.683594,246.265625,334.683594L246.265625,259.167969" fill="rgb(235,176,68)" stroke="none" stroke-width="1"/><path id="ewCjrJPQUZo44" d="M222.578125,259.167969L233.175781,259.167969L233.175781,358.371094L222.578125,358.371094ZM222.578125,259.167969" fill="rgb(228,149,66)" stroke="none" stroke-width="1"/><path id="ewCjrJPQUZo45" d="M168.968750,333.972656L168.968750,290.316406C168.968750,267.937500,150.828125,249.796875,128.449219,249.796875C106.070312,249.796875,87.929688,267.937500,87.929688,290.316406L87.929688,321.949219C87.929688,342.066406,104.238281,358.371094,124.355469,358.371094L168.968750,358.371094C175.707031,358.371094,181.167969,352.910156,181.167969,346.171875C181.167969,339.433594,175.707031,333.972656,168.968750,333.972656ZM168.968750,333.972656" fill="rgb(235,176,68)" stroke="none" stroke-width="1"/><path id="ewCjrJPQUZo46" d="M182.105469,333.972656L182.105469,290.316406C182.105469,267.937500,163.964844,249.796875,141.585938,249.796875C119.207031,249.796875,101.066406,267.937500,101.066406,290.316406L101.066406,321.949219C101.066406,342.066406,117.371094,358.371094,137.488281,358.371094L182.105469,358.371094C188.843750,358.371094,194.304688,352.910156,194.304688,346.171875C194.304688,339.433594,188.843750,333.972656,182.105469,333.972656ZM182.105469,333.972656" fill="rgb(228,149,66)" stroke="none" stroke-width="1"/><path id="ewCjrJPQUZo47" d="M181.171875,346.171875C181.171875,352.910156,175.707031,358.375000,168.968750,358.375000L124.351562,358.375000C104.234375,358.375000,87.929688,342.062500,87.929688,321.949219L87.929688,290.316406C87.929688,279.125000,92.464844,269,99.792969,261.664062C107.128906,254.332031,117.261719,249.796875,128.453125,249.796875C150.828125,249.796875,168.968750,267.937500,168.968750,290.316406L168.968750,333.968750C172.339844,333.968750,175.386719,335.335938,177.597656,337.546875C179.804688,339.753906,181.171875,342.804688,181.171875,346.171875ZM181.171875,346.171875" fill="rgb(235,176,68)" stroke="none" stroke-width="1"/><path id="ewCjrJPQUZo48" d="M148.667969,358.367188L124.351562,358.367188C104.234375,358.367188,87.929688,342.058594,87.929688,321.945312L87.929688,290.316406C87.929688,279.125000,92.464844,268.996094,99.796875,261.660156C107.125000,254.328125,117.261719,249.792969,128.445312,249.792969C132.683594,249.792969,136.761719,250.441406,140.605469,251.648438C134.300781,253.625000,128.664062,257.105469,124.109375,261.660156C116.773438,268.996094,112.238281,279.125000,112.238281,290.316406L112.238281,321.945312C112.238281,342.058594,128.546875,358.367188,148.667969,358.367188ZM148.667969,358.367188" fill="rgb(228,149,66)" stroke="none" stroke-width="1"/><path id="ewCjrJPQUZo49" d="M148.718750,314.027344L148.718750,358.375000L139.363281,358.375000L139.363281,314.027344C139.363281,310.191406,136.238281,307.066406,132.398438,307.066406C128.562500,307.066406,125.445312,310.191406,125.445312,314.027344C125.445312,316.609375,123.347656,318.707031,120.765625,318.707031C118.183594,318.707031,116.089844,316.609375,116.089844,314.027344C116.089844,305.023438,123.406250,297.707031,132.402344,297.707031C141.394531,297.707031,148.718750,305.023438,148.718750,314.027344ZM148.718750,314.027344" fill="rgb(228,149,66)" stroke="none" stroke-width="1"/></g></svg>